<svg width="24" height="24" viewBox="0 0 24 24" fill="none" xmlns="http://www.w3.org/2000/svg">
<path d="M11.6803 15.3901C11.2215 16.1112 10.7813 16.8167 9.79491 17.502C9.26728 17.8719 8.05284 18.5945 6.32662 18.5945C3.03323 18.5945 0.375 16.2001 0.375 11.9906C0.375 8.31152 2.87555 5.40527 6.39684 5.40527C7.82344 5.40527 9.09094 5.89845 10.0244 6.63827C10.8875 7.32499 11.2918 8.0119 11.6445 8.6284L9.17981 9.85995C9.00347 9.4556 8.79122 9.03265 8.24639 8.57529C7.64714 8.09927 7.0492 7.95879 6.53733 7.95879C4.53009 7.95879 3.47339 9.82559 3.47339 11.9031C3.47339 14.633 4.86558 15.9879 6.53733 15.9879C8.15747 15.9879 8.80983 14.8609 9.23142 14.1398L11.6803 15.3901V15.3901ZM20.3144 5.79241H23.625L19.3108 18.2246H16.1422L11.881 5.79241H15.1916L17.7623 14.633L20.3144 5.79241Z" fill="black"/>
</svg>
