<svg width="24" height="24" viewBox="0 0 24 24" fill="none" xmlns="http://www.w3.org/2000/svg">
<g clip-path="url(#clip0_3552_678)">
<path d="M6.50164 20.7309H2.31534V7.24963H6.50164V20.7309ZM4.40596 5.41069C3.0675 5.41069 1.98145 4.30155 1.98145 2.96309C1.98145 2.32007 2.23689 1.70338 2.69157 1.2487C3.14626 0.794014 3.76294 0.538574 4.40596 0.538574C5.04899 0.538574 5.66567 0.794014 6.12036 1.2487C6.57504 1.70338 6.83048 2.32007 6.83048 2.96309C6.83048 4.30155 5.74443 5.41069 4.40596 5.41069ZM22.1694 20.7309H17.9925V14.1684C17.9925 12.6042 17.9608 10.5987 15.8161 10.5987C13.6396 10.5987 13.3057 12.2977 13.3057 14.0559V20.7309H9.12375V7.24963H13.1384V9.08857H13.1968C13.7557 8.0292 15.1209 6.91141 17.1574 6.91141C21.3942 6.91141 22.173 9.70156 22.173 13.3254V20.7309H22.1694Z" fill="black"/>
</g>
<defs>
<clipPath id="clip0_3552_678">
<rect width="23.0769" height="23.0769" fill="white" transform="translate(0.539062 0.538574)"/>
</clipPath>
</defs>
</svg>
